#N canvas 523 241 516 271 10;
#X floatatom 175 29 4 0 100 0 - random-recv random-send, f 4;
#X floatatom 175 57 4 0 1 0 - compress-recv compress-send, f 4;
#X floatatom 152 95 4 -120 0 0 MIN_DB mindb-recv mindb-send, f 4;
#X floatatom 152 113 4 -90 12 0 MAX_DB maxdb-recv maxdb-send, f 4
;
#X obj 229 16 cnv 15 250 190 empty empty ZAEHMUNGEN 8 12 0 14 -249661
-1 0;
#X obj 333 117 bng 50 250 50 0 exit-send exit-recv QUIT 11 24 0 12
-254995 -262144 -1;
#N canvas 572 556 531 209 _ 1;
#N canvas 1 140 203 125 debug 0;
#X msg -126 12 \; dumpstate bang \; openlog bang \;;
#X restore 24 94 pd debug;
#N canvas 975 152 864 564 oscin 0;
#X obj 15 376 unpack f f;
#X obj 15 398 + 96;
#X obj 15 421 s soundlevel;
#X obj 134 318 s print-recv;
#X obj 194 274 s random-recv;
#X obj 253 246 s compress-recv;
#X obj 313 214 s mindb-recv;
#X obj 372 184 s maxdb-recv;
#X obj 74 267 s gain-recv;
#X msg 194 254 set \$1;
#X msg 253 225 set \$1;
#X msg 313 193 set \$1;
#X msg 372 162 set \$1;
#X obj 432 238 s status-recv;
#X obj 432 215 list prepend;
#X obj 492 185 s osc-ok;
#X obj 141 160 print INFO;
#X obj 134 297 list prepend;
#X msg 492 163 set 1;
#X obj 74 226 rmstodb;
#X obj 74 246 - 100;
#X obj 552 191 list prepend;
#X obj 552 213 s midiports;
#X obj 623 260 s gainfactor-recv;
#X msg 623 237 set \$1;
#X obj 50 333 s vu;
#X msg 694 207 \; exit-send bang \;;
#X obj 765 188 s gotping;
#X obj 524 311 r gotping;
#X msg 671 432 connect localhost \$1;
#X obj 524 335 t b a, f 25;
#N canvas 223 172 172 156 changed 0;
#X obj 50 7 inlet;
#X obj 10 95 select 1 0;
#X obj 92 83 f;
#X obj 10 72 == 0;
#X obj 50 35 t f f, f 10;
#X obj 92 111 outlet;
#X connect 0 0 4 0;
#X connect 1 1 2 0;
#X connect 2 0 3 1;
#X connect 2 0 5 0;
#X connect 3 0 1 0;
#X connect 4 0 3 0;
#X connect 4 1 2 1;
#X restore 671 357 pd changed;
#X floatatom 671 414 5 0 0 0 - - -, f 5;
#X obj 671 380 t f b, f 7;
#X msg 710 404 disconnect;
#X msg 15 39 listen 7772;
#X obj 15 63 netreceive -u -b;
#X obj 15 17 loadbang;
#X obj 15 87 oscparse;
#X obj 15 109 list trim;
#X obj 15 137 route soundlevel gain print random compress mindb maxdb
status pingback, f 90;
#X obj 552 169 route connectedports gainrel stop ping, f 48;
#X obj 671 492 netsend -u -b;
#X obj 524 372 oscformat pingback;
#X obj 524 400 list prepend send;
#X obj 524 422 list trim;
#X obj 800 297 print ***;
#X connect 0 0 1 0;
#X connect 1 0 2 0;
#X connect 9 0 4 0;
#X connect 10 0 5 0;
#X connect 11 0 6 0;
#X connect 12 0 7 0;
#X connect 14 0 13 0;
#X connect 17 0 3 0;
#X connect 18 0 15 0;
#X connect 19 0 20 0;
#X connect 20 0 8 0;
#X connect 21 0 22 0;
#X connect 24 0 23 0;
#X connect 28 0 30 0;
#X connect 29 0 42 0;
#X connect 30 0 43 0;
#X connect 30 1 31 0;
#X connect 31 0 33 0;
#X connect 32 0 29 0;
#X connect 33 0 32 0;
#X connect 33 1 34 0;
#X connect 34 0 42 0;
#X connect 35 0 36 0;
#X connect 36 0 38 0;
#X connect 37 0 35 0;
#X connect 38 0 39 0;
#X connect 39 0 40 0;
#X connect 40 0 0 0;
#X connect 40 0 25 0;
#X connect 40 1 19 0;
#X connect 40 2 16 0;
#X connect 40 2 17 0;
#X connect 40 3 9 0;
#X connect 40 4 10 0;
#X connect 40 5 11 0;
#X connect 40 6 12 0;
#X connect 40 7 14 0;
#X connect 40 8 18 0;
#X connect 40 9 41 0;
#X connect 41 0 21 0;
#X connect 41 1 24 0;
#X connect 41 2 26 0;
#X connect 41 3 27 0;
#X connect 41 4 46 0;
#X connect 43 0 44 0;
#X connect 44 0 45 0;
#X connect 45 0 42 0;
#X restore 24 19 pd oscin;
#N canvas 1165 158 662 722 oscout 0;
#X obj 368 354 loadbang;
#X msg 429 415 connect localhost 7771;
#X obj 15 284 r exit-send;
#X msg 104 322 \; pd quit;
#X obj 104 301 delay 1000;
#X obj 10 149 r compress-send;
#X obj 11 34 r random-send;
#X obj 298 32 r mindb-send;
#X obj 163 149 r maxdb-send;
#X obj 429 110 tgl 15 0 empty empty empty 17 7 0 10 -262144 -1 -1 1
1;
#X obj 429 83 r ping-task;
#X obj 429 159 t b b;
#X msg 456 393 disconnect;
#X obj 335 422 r udpsend;
#X obj 429 443 s udpsend;
#X msg 456 183 \; osc-ok set 0;
#X obj 437 323 r osc-ok-send;
#X obj 437 344 select 1;
#X obj 429 371 t b b;
#X obj 452 604 r reset-send;
#X obj 163 34 r gainfactor-send;
#X obj 449 485 r midiports-poll;
#X obj 522 27 r heartbeat-task;
#X obj 522 51 tgl 15 0 empty empty empty 17 7 0 10 -262144 -1 -1 1
1;
#X obj 204 603 r openlog;
#X obj 13 475 list prepend send;
#X obj 13 495 list trim;
#X obj 13 452 oscformat;
#X obj 335 443 netsend -u -b;
#X obj 13 431 r oscsend;
#X msg 325 73 set mindb set;
#X obj 298 94 s oscsend;
#X obj 204 664 s oscsend;
#X msg 231 643 set openlog;
#X obj 324 665 s oscsend;
#X obj 324 604 r dumpstate;
#X msg 351 644 set dumpstate;
#X obj 522 134 s oscsend;
#X obj 522 93 t b b;
#X obj 429 263 s oscsend;
#X obj 429 217 t b b;
#X msg 471 237 set ping;
#X msg 429 238 7772;
#X obj 449 555 s oscsend;
#X obj 449 509 t b b;
#X msg 449 530 7772;
#X obj 324 624 t b b;
#X obj 204 623 t b b;
#X obj 452 669 s oscsend;
#X obj 452 628 t b b;
#X msg 479 648 set restartaudio;
#X obj 163 212 s oscsend;
#X obj 163 171 t a b;
#X msg 190 191 set maxdb set;
#X obj 298 53 t a b;
#X obj 14 615 s oscsend;
#X obj 14 574 t b b;
#X msg 41 594 set openconfig;
#X obj 14 551 r opensettings-send;
#X obj 163 98 s oscsend;
#X obj 163 57 t a b;
#X msg 190 77 set gain set;
#X obj 11 99 s oscsend;
#X obj 11 58 t a b;
#X msg 38 78 set random set;
#X obj 10 213 s oscsend;
#X obj 10 172 t a b;
#X msg 37 192 set compress set;
#X obj 15 348 s oscsend;
#X obj 15 307 t b b;
#X msg 42 327 set stop;
#X msg 549 113 set gui heart;
#X obj 522 71 metro 500;
#X obj 331 160 s osc-reconnect;
#X obj 429 299 r osc-reconnect;
#X obj 13 516 s udpsend;
#X msg 491 529 set connectedports get;
#X obj 429 136 metro 5000;
#X connect 0 0 18 0;
#X connect 1 0 14 0;
#X connect 2 0 4 0;
#X connect 2 0 69 0;
#X connect 4 0 3 0;
#X connect 5 0 66 0;
#X connect 6 0 63 0;
#X connect 7 0 54 0;
#X connect 8 0 52 0;
#X connect 9 0 77 0;
#X connect 10 0 9 0;
#X connect 11 0 40 0;
#X connect 11 1 15 0;
#X connect 12 0 14 0;
#X connect 13 0 28 0;
#X connect 16 0 17 0;
#X connect 17 0 18 0;
#X connect 18 0 1 0;
#X connect 18 1 12 0;
#X connect 19 0 49 0;
#X connect 20 0 60 0;
#X connect 21 0 44 0;
#X connect 22 0 23 0;
#X connect 23 0 72 0;
#X connect 24 0 47 0;
#X connect 25 0 26 0;
#X connect 26 0 75 0;
#X connect 27 0 25 0;
#X connect 29 0 27 0;
#X connect 30 0 31 0;
#X connect 33 0 32 0;
#X connect 35 0 46 0;
#X connect 36 0 34 0;
#X connect 38 0 37 0;
#X connect 38 1 71 0;
#X connect 40 0 42 0;
#X connect 40 1 41 0;
#X connect 41 0 39 0;
#X connect 42 0 39 0;
#X connect 44 0 45 0;
#X connect 44 1 76 0;
#X connect 45 0 43 0;
#X connect 46 0 34 0;
#X connect 46 1 36 0;
#X connect 47 0 32 0;
#X connect 47 1 33 0;
#X connect 49 0 48 0;
#X connect 49 1 50 0;
#X connect 50 0 48 0;
#X connect 52 0 51 0;
#X connect 52 1 53 0;
#X connect 53 0 51 0;
#X connect 54 0 31 0;
#X connect 54 1 30 0;
#X connect 56 0 55 0;
#X connect 56 1 57 0;
#X connect 57 0 55 0;
#X connect 58 0 56 0;
#X connect 60 0 59 0;
#X connect 60 1 61 0;
#X connect 61 0 59 0;
#X connect 63 0 62 0;
#X connect 63 1 64 0;
#X connect 64 0 62 0;
#X connect 66 0 65 0;
#X connect 66 1 67 0;
#X connect 67 0 65 0;
#X connect 69 0 68 0;
#X connect 69 1 70 0;
#X connect 70 0 68 0;
#X connect 71 0 37 0;
#X connect 72 0 38 0;
#X connect 74 0 18 0;
#X connect 76 0 43 0;
#X connect 77 0 11 0;
#X restore 24 44 pd oscout;
#N canvas 862 307 646 445 init 1;
#X obj 14 14 loadbang;
#X obj 422 32 delay 2000;
#X obj 185 32 delay 200;
#X msg 14 72 \; print-recv set ___ \; osc-ok 0 \; close-sub bang \;
;
#X msg 423 54 \; midiports-poll bang \; dumpstate bang \; osc-reconnect
bang \;;
#X obj 19 243 r close-sub;
#X msg 19 267 \; pd-_ vis 0 \; pd-oscout vis 0 \; pd-oscin vis 0 \;
pd-init vis 0 \; pd-debug vis 0 \;;
#X msg 185 73 \; ping-task 1 \; heartbeat-task 1 \; osc-reconnect bang
\;;
#X connect 0 0 3 0;
#X connect 0 0 1 0;
#X connect 0 0 2 0;
#X connect 1 0 4 0;
#X connect 2 0 7 0;
#X connect 5 0 6 0;
#X restore 24 68 pd init;
#X obj 24 120 tgl 14 0 osc-ok-send osc-ok OSC-OK 17 7 0 10 -262144
-1 -1 1 1;
#X restore 444 21 pd _;
#X obj 87 155 bng 50 250 50 0 opensettings-send opensettings-recv CONFIG
4 24 0 12 -53203 -262144 -1;
#X symbolatom 259 52 35 0 0 0 - status-recv _, f 35;
#X obj 88 29 hsl 80 14 0 1 0 0 random-send random-recv RANDOM -1 7
0 9 -228856 -1 -1 1900 1;
#X obj 88 57 hsl 80 14 0 1 0 0 compress-send compress-recv COMPRESS
-1 7 0 9 -228856 -1 -1 3400 1;
#X obj 140 155 bng 50 250 50 0 reset-send reset-recv RESET 8 24 0 12
-257983 -262144 -1;
#X symbolatom 259 68 35 0 0 0 MIDI midiports __, f 35;
#X obj 36 23 vu 12 160 vu empty -1 -8 0 9 -66577 -1 1 0;
#X floatatom 24 189 4 0 0 0 - gain-recv gain-#0, f 4;
#N canvas 844 70 533 619 HELP 0;
#X text 1 6 SETUP -----, f 6;
#X text 2 40 1 Connect a MIDI Keyboard. Connect a MIDI Expression pedal.
;
#X obj 4 284 cnv 15 480 300 empty empty empty 20 12 0 14 -204786 -66577
0;
#X text 10 482 CONFIG: opens the configuration windows;
#X text 10 418 MIN_DB \, MAX_DB: They adjust the sensitivity of the
keyboard. MAX_DB is the volume of a key when pressed at maximum velocity
\, MIN_DB is the volume when the key is pressed at minimum velocity
;
#X text 10 357 COMPRESS: Adjusts the amount of compression. To compensate
for volume loss through compression \, you can set "MAX_DB" to some
possitive value.;
#X obj 3 99 cnv 15 480 180 empty empty empty 20 12 0 14 -204800 -66577
0;
#X text 8 109 MIDI CONFIGURATION ------------------, f 23;
#X text 8 147 Press "CONFIG". A window with a text editor will be open.
Here you can configure your MIDI controller., f 78;
#X text 10 190 VOLUME PEDAL. A Volume Pedal is needed to adjust long-held
sounds after you have played them. Connect an expression pedal to your
keyboard. The Control Change (CC) will be visible in "INFO". Press
"CONFIG" and change the value "CC_gainchange" to the CC value shown.
After saving the text-document \, the volume should follow the movements
of the pedal., f 78;
#X text 10 330 RANDOM: controls the randomness of the grain cloud;
#X text 10 504 RESET: restarts the audio engine. This only needs to
be done if you changed your audio device;
#X text 143 561 **** PANIC: press C2+Eb2 ****;
#X text 10 294 CONTROLS;
#X text 2 61 2 Play a note. Sound should be audible. NB: puredata is
only used as a gui \, DSP should not be on, f 67;
#X restore 398 21 pd HELP;
#X obj 24 23 vsl 8 159 0 1 0 0 gainfactor-send gainfactor-recv empty
0 -9 0 10 -262144 -1 -1 15800 1;
#X text 233 177 ----------------------------------------;
#X text 308 189 PANIC: C2 + Eb2;
#X symbolatom 259 84 35 0 0 0 INFO print-recv print-send, f 35;
